mtllib ./BonusSpeed.mtl
o BonusVitesse
v -0.1662266 0.1928393 0 1 1 1
v -0.1662266 0.1928393 -0.03451072 1 1 1
v -0.07313349 0.1928393 -0.03451073 1 1 1
v -0.07313349 0.1928393 -1.490116E-08 1 1 1
v -0.2112125 0.07298066 0 1 1 1
v -0.2112125 0.07298066 -0.03451072 1 1 1
v -0.2112125 0.1427331 -0.03451072 1 1 1
v -0.2112125 0.1427331 0 1 1 1
v -0.07313349 0.03208907 0 1 1 1
v -0.07313349 0.03208907 -0.03451072 1 1 1
v -0.1662266 0.03208907 -0.03451072 1 1 1
v -0.1662266 0.03208907 0 1 1 1
v -0.0338068 0.1427331 0 1 1 1
v -0.0338068 0.1427331 -0.03451072 1 1 1
v -0.0338068 0.07298066 -0.03451072 1 1 1
v -0.0338068 0.07298066 0 1 1 1
v -0.1608198 0.1735187 -0.03451072 1 1 1
v -0.07920227 0.1737565 -0.03451072 1 1 1
v -0.04993859 0.1404384 -0.03451072 1 1 1
v -0.04993859 0.07923769 -0.03451072 1 1 1
v -0.08088964 0.04707382 -0.03451072 1 1 1
v -0.1577247 0.04707382 -0.03451072 1 1 1
v -0.1936563 0.07923769 -0.03451072 1 1 1
v -0.1936563 0.1404384 -0.03451072 1 1 1
v -0.07920227 0.1737565 -7.078052E-08 1 1 1
v -0.1608198 0.1735187 -6.332994E-08 1 1 1
v -0.1936563 0.1404384 -7.078052E-08 1 1 1
v -0.1936563 0.07923769 -6.332994E-08 1 1 1
v -0.1577247 0.04707382 -6.332994E-08 1 1 1
v -0.08088964 0.04707382 -6.332994E-08 1 1 1
v -0.04993859 0.07923769 -6.332994E-08 1 1 1
v -0.04993859 0.1404384 -6.332994E-08 1 1 1
v -0.1544747 0.1581929 -6.332994E-08 1 1 1
v -0.1544747 0.1581929 -0.03451072 1 1 1
v -0.08819564 0.1581929 -0.03451072 1 1 1
v -0.08819564 0.1581929 -7.078052E-08 1 1 1
v -0.1751992 0.08266141 -6.332994E-08 1 1 1
v -0.1751992 0.08266141 -0.03451072 1 1 1
v -0.1751992 0.1384395 -0.03451072 1 1 1
v -0.1751992 0.1384395 -6.332994E-08 1 1 1
v -0.1514723 0.06446306 -6.332994E-08 1 1 1
v -0.1514723 0.06446306 -0.03451072 1 1 1
v -0.08819564 0.06446306 -6.332994E-08 1 1 1
v -0.08819564 0.06446306 -0.03451072 1 1 1
v -0.0657138 0.1384395 -6.332994E-08 1 1 1
v -0.0657138 0.1384395 -0.03451072 1 1 1
v -0.0657138 0.0851609 -0.03451072 1 1 1
v -0.0657138 0.0851609 -7.078052E-08 1 1 1
v -0.1636911 0.08947141 -0.03451068 1 1 1
v -0.1644105 0.09881955 -0.03451068 1 1 1
v -0.1630755 0.1080998 -0.03451068 1 1 1
v -0.1597502 0.1168662 -0.03451068 1 1 1
v -0.1545945 0.1246972 -0.03451068 1 1 1
v -0.1478562 0.1312165 -0.03451068 1 1 1
v -0.1398591 0.1361107 -0.03451068 1 1 1
v -0.1309877 0.1391446 -0.03451069 1 1 1
v -0.1216684 0.1401724 -0.03451069 1 1 1
v -0.1123491 0.1391446 -0.03451069 1 1 1
v -0.1034777 0.1361107 -0.0345107 1 1 1
v -0.09548069 0.1312165 -0.0345107 1 1 1
v -0.08874238 0.1246972 -0.03451071 1 1 1
v -0.08358668 0.1168662 -0.03451071 1 1 1
v -0.08026139 0.1080999 -0.03451071 1 1 1
v -0.07892635 0.09881958 -0.03451072 1 1 1
v -0.07964574 0.08947141 -0.03451072 1 1 1
v -0.1134889 0.08947141 -0.0345107 1 1 1
v -0.1138335 0.08858176 -0.03451072 1 1 1
v -0.1152508 0.08664381 -0.03451072 1 1 1
v -0.1171213 0.08513869 -0.03451072 1 1 1
v -0.1193176 0.08416899 -0.03451072 1 1 1
v -0.1216901 0.08380077 -0.03451072 1 1 1
v -0.124077 0.08405914 -0.03451072 1 1 1
v -0.1263157 0.08492649 -0.03451072 1 1 1
v -0.1282537 0.08634371 -0.03451072 1 1 1
v -0.1297588 0.08821422 -0.03451072 1 1 1
v -0.1303138 0.08947141 -0.03451069 1 1 1
v -0.1307285 0.09041055 -0.03451072 1 1 1
v -0.1310967 0.09278301 -0.03451072 1 1 1
v -0.1308383 0.09516994 -0.03451072 1 1 1
v -0.1303306 0.09648046 -0.03451072 1 1 1
v -0.1578715 0.09648046 -0.03451072 1 1 1
v -0.1573999 0.1036894 -0.03451071 1 1 1
v -0.1555004 0.1106595 -0.03451071 1 1 1
v -0.1522493 0.117111 -0.03451071 1 1 1
v -0.1477772 0.1227848 -0.03451071 1 1 1
v -0.1422636 0.1274529 -0.03451071 1 1 1
v -0.1359299 0.130928 -0.0345107 1 1 1
v -0.1290306 0.1330705 -0.0345107 1 1 1
v -0.1218426 0.1337943 -0.0345107 1 1 1
v -0.1146546 0.1330705 -0.0345107 1 1 1
v -0.1077552 0.130928 -0.03451071 1 1 1
v -0.1014216 0.1274529 -0.03451071 1 1 1
v -0.09590801 0.1227848 -0.03451071 1 1 1
v -0.09143586 0.117111 -0.03451071 1 1 1
v -0.08818476 0.1106596 -0.03451071 1 1 1
v -0.08628526 0.1036894 -0.03451072 1 1 1
v -0.08581362 0.09648046 -0.03451071 1 1 1
v -0.1134737 0.09648046 -0.03451071 1 1 1
v -0.113076 0.09557988 -0.03451072 1 1 1
v -0.1127078 0.09320741 -0.03451072 1 1 1
v -0.1129662 0.09082048 -0.03451072 1 1 1
v -0.1285538 0.09934662 -0.03451072 1 1 1
v -0.1266833 0.1008517 -0.03451072 1 1 1
v -0.1244869 0.1018214 -0.03451072 1 1 1
v -0.1221145 0.1021897 -0.03451072 1 1 1
v -0.1390968 0.1291904 -0.0345107 1 1 1
v -0.1140457 0.0977762 -0.03451072 1 1 1
v -0.1155509 0.09964671 -0.03451072 1 1 1
v -0.1174888 0.1010639 -0.03451072 1 1 1
v -0.1197275 0.1019313 -0.03451072 1 1 1
v -0.129971 0.09740866 -0.03451072 1 1 1
v -0.1221145 0.1021897 -5.587935E-08 1 1 1
v -0.1197275 0.1019313 -5.587935E-08 1 1 1
v -0.1174888 0.101064 -5.587935E-08 1 1 1
v -0.1155509 0.09964675 -5.587935E-08 1 1 1
v -0.1140457 0.09777624 -5.587935E-08 1 1 1
v -0.1134737 0.0964805 -4.842877E-08 1 1 1
v -0.08581362 0.0964805 -4.842877E-08 1 1 1
v -0.08628526 0.1036894 -5.587935E-08 1 1 1
v -0.08818476 0.1106596 -5.215406E-08 1 1 1
v -0.09143586 0.1171111 -4.842877E-08 1 1 1
v -0.09590801 0.1227848 -4.470348E-08 1 1 1
v -0.1014216 0.1274529 -4.470348E-08 1 1 1
v -0.1077552 0.130928 -4.470348E-08 1 1 1
v -0.1146546 0.1330705 -4.097819E-08 1 1 1
v -0.1218426 0.1337944 -4.097819E-08 1 1 1
v -0.1290306 0.1330705 -4.097819E-08 1 1 1
v -0.1359299 0.130928 -4.097819E-08 1 1 1
v -0.1422636 0.1274529 -4.470348E-08 1 1 1
v -0.1477772 0.1227848 -4.470348E-08 1 1 1
v -0.1522493 0.1171111 -4.842877E-08 1 1 1
v -0.1555004 0.1106596 -5.215406E-08 1 1 1
v -0.1573999 0.1036894 -5.215406E-08 1 1 1
v -0.1578715 0.0964805 -5.587935E-08 1 1 1
v -0.1303306 0.0964805 -5.587935E-08 1 1 1
v -0.129971 0.0974087 -5.587935E-08 1 1 1
v -0.1285538 0.09934665 -5.587935E-08 1 1 1
v -0.1390968 0.1291905 -4.097819E-08 1 1 1

vn 0 1 0
vn -1 0 0
vn 0 -1 0
vn 1 0 0
vn 0 0 -1
vn -0.7441033 0.6680646 0
vn -0.6726308 -0.7399783 0
vn 0.7207639 -0.6931806 0
vn 0.7866418 0.6174098 0
vn 0.002914582 -0.9999958 0
vn 0.6669633 0.7450905 0
vn -0.7205617 0.6933909 0
vn -0.7513427 -0.6599122 0
vn -0.6085945 -0.7934813 0
vn 0.7097179 -0.704486 0
vn -0.6899438 0.7238629 0
vn 0.6773142 -0.7356938 0
vn 0.6600515 0.7512203 0
vn 1.600673E-07 -2.979172E-06 1
vn 0.1076156 0.9941926 -1.073192E-06
vn 0.3612659 0.9324629 -1.006557E-06
vn 0.5902939 0.8071885 -8.713282E-07
vn 0.7790961 0.6269046 -6.767189E-07
vn 0.9148029 0.4039005 -4.359947E-07
vn -0.9978667 -0.06528426 7.047179E-08
vn -0.9648148 -0.2629307 2.838233E-07
vn -0.8930183 -0.4500203 4.857792E-07
vn -0.7853612 -0.6190378 6.68227E-07
vn -0.6461667 -0.7631963 8.238404E-07
vn -0.4810255 -0.8767066 7.570962E-07
vn -0.2965629 -0.9550133 8.247195E-07
vn -0.1001962 -0.9949677 8.592228E-07
vn 0.1001965 -0.9949677 8.592228E-07
vn 0.2965645 -0.9550128 8.247191E-07
vn 0.4810243 -0.8767073 7.570968E-07
vn 0.6461673 -0.7631958 6.590719E-07
vn 0.7853611 -0.619038 6.682272E-07
vn 0.8930192 -0.4500186 4.857774E-07
vn 0.9648145 -0.2629316 2.838244E-07
vn 0.997867 -0.06528029 7.046751E-08
vn -0.9324645 0.3612616 -3.899677E-07
vn -0.8071885 0.5902939 -6.371991E-07
vn -0.9428922 -0.3330979 3.595661E-07
vn 0.84649 0.5324047 -5.7471E-07

vt 0.1662266 0
vt 0.1662266 -0.03451073
vt 0.0731335 -0.03451073
vt 0.0731335 0
vt 0 0.07298067
vt -0.03451073 0.07298067
vt -0.03451073 0.1427332
vt 0 0.1427332
vt -0.07313347 0
vt -0.07313347 0.03451073
vt -0.1662266 0.03451073
vt -0.1662266 0
vt 0.03451073 0.1427332
vt 0.03451073 0.07298067
vt 0.0731335 0.1928393
vt 0.1662266 0.1928393
vt 0.2112125 0.1427332
vt 0.2112125 0.07298067
vt 0.1662266 0.03208908
vt 0.0731335 0.03208908
vt 0.0338068 0.07298067
vt 0.0338068 0.1427332
vt 0.1608198 0.1735187
vt 0.07920226 0.1737565
vt 0.04993859 0.1404384
vt 0.04993859 0.0792377
vt 0.08088964 0.04707381
vt 0.1577247 0.04707381
vt 0.1936563 0.0792377
vt 0.1936563 0.1404384
vt -0.03451073 0.1928393
vt 0 0.1928393
vt -0.2112125 0.03451073
vt -0.2112125 0
vt 0.03451073 0.03208908
vt 0 0.03208908
vt 0.03451073 0.1928393
vt -0.07920229 5.960464E-08
vt -0.07920229 0.03451073
vt -0.1608198 0.03451073
vt -0.1608198 5.960464E-08
vt 5.960464E-08 0.1404384
vt 0.03451073 0.1404384
vt 0.03451073 0.0792377
vt 5.960464E-08 0.0792377
vt 0.1936563 -5.960464E-08
vt 0.1936563 -0.03451073
vt 0.1577247 -0.03451073
vt 0.1577247 -5.960464E-08
vt 0.08088964 -0.03451073
vt 0.08088964 -5.960464E-08
vt -5.960464E-08 0.04707381
vt -0.03451073 0.04707381
vt -0.03451073 0.0792377
vt -0.03451073 0.1404384
vt -0.03451073 0.1737565
vt -5.960464E-08 0.1737565
vt 0.1544747 -5.960464E-08
vt 0.1544747 -0.03451073
vt 0.08819565 -0.03451073
vt 0.08819565 -5.960464E-08
vt -5.960464E-08 0.08266142
vt -0.03451073 0.08266142
vt -0.03451073 0.1384395
vt -5.960464E-08 0.1384395
vt -0.1514723 5.960464E-08
vt -0.1514723 0.03451073
vt -0.1751992 0.03451073
vt -0.1751992 5.960464E-08
vt -0.08819562 5.960464E-08
vt -0.08819562 0.03451073
vt 0.03451073 0.1384395
vt 0.03451073 0.08516091
vt 5.960464E-08 0.08516091
vt -0.2023163 1.194588
vt 0.3075943 0.6596222
vt 0.3075943 0.3403778
vt -0.142601 -0.08875275
vt -0.472023 -0.03725433
vt -0.958847 0.4734802
vt -0.9647522 0.8141708
vt -0.5347214 1.224068
vt -0.1761703 0.05652618
vt -0.09518433 0.1226425
vt -0.03055573 0.2048111
vt 0.01461792 0.2990952
vt 0.03816223 0.4009552
vt 0.03894043 0.5055008
vt 0.016922 0.6076965
vt -0.02684784 0.7026443
vt -0.09024811 0.7857666
vt -0.1702423 0.8530884
vt -0.2629852 0.9013519
vt -0.364006 0.9282379
vt -0.4684677 0.9324722
vt -0.5713425 0.9138336
vt -0.6676788 0.87323
vt -0.7528534 0.8126144
vt -0.8227768 0.7348862
vt -0.5624008 0.4617233
vt -0.566925 0.452095
vt -0.5716705 0.4257507
vt -0.5694275 0.3990707
vt -0.5603561 0.3738861
vt -0.5450821 0.3519058
vt -0.5246277 0.3346252
vt -0.5004044 0.3232269
vt -0.4740524 0.3184891
vt -0.4473724 0.3207321
vt -0.4329605 0.3259277
vt 0.1644105 0.09881955
vt 0.1636911 0.0894714
vt 0.1303138 0.0894714
vt 0.1307285 0.09041053
vt 0.1310967 0.092783
vt 0.1308383 0.09516993
vt 0.1303306 0.09648046
vt 0.1578715 0.09648046
vt 0.1573999 0.1036894
vt 0.1555004 0.1106595
vt 0.1522493 0.117111
vt 0.1477772 0.1227848
vt 0.1422636 0.1274529
vt 0.1359299 0.130928
vt 0.1290306 0.1330705
vt 0.1218426 0.1337943
vt 0.1146546 0.1330705
vt 0.1077552 0.130928
vt 0.1014216 0.1274529
vt 0.09590802 0.1227848
vt 0.09143585 0.117111
vt 0.08818477 0.1106596
vt 0.08628526 0.1036894
vt 0.08581361 0.09648046
vt 0.1134737 0.09648046
vt 0.113076 0.09557986
vt 0.1127078 0.09320742
vt 0.1129662 0.09082049
vt 0.1134889 0.0894714
vt 0.07964575 0.0894714
vt 0.07892635 0.09881958
vt 0.08026138 0.1080999
vt 0.08358669 0.1168662
vt 0.08874238 0.1246972
vt 0.09548068 0.1312165
vt 0.1034777 0.1361107
vt 0.1123491 0.1391446
vt 0.1216684 0.1401724
vt 0.1309878 0.1391446
vt 0.1398591 0.1361107
vt 0.1478562 0.1312165
vt 0.1545945 0.1246972
vt 0.1597502 0.1168662
vt 0.1630754 0.1080998
vt 0.1285537 0.09934661
vt 0.1266832 0.1008517
vt 0.1244869 0.1018214
vt 0.1221145 0.1021897
vt 0.1390968 0.1291904
vt 0.1140457 0.0977762
vt 0.1155509 0.09964672
vt 0.1174888 0.1010639
vt 0.1197276 0.1019313
vt 0.129971 0.09740865
vt 0.1297588 0.08821422
vt 0.1282537 0.08634371
vt 0.1263157 0.08492649
vt 0.124077 0.08405915
vt 0.1216901 0.08380076
vt 0.1193176 0.08416897
vt 0.1171213 0.08513868
vt 0.1152508 0.08664382
vt 0.1138335 0.08858177
vt 5.960464E-08 0.1735187
vt 0.03451073 0.1735187
vt 0.6924069 0.3403767
vt 0.6924069 0.6596233
vt -0.06571382 5.960464E-08
vt -0.06571382 0.03451073
vt 0.06571379 -0.03451073
vt 0.06571379 -5.960464E-08
vt -0.1662266 0.1928393
vt -0.07313347 0.1928393
vt -0.07920229 0.1737565
vt -0.1608198 0.1735187
vt -0.2112125 0.07298067
vt -0.2112125 0.1427332
vt -0.1936563 0.1404384
vt -0.1936563 0.0792377
vt -0.0338068 0.1427332
vt -0.0338068 0.07298067
vt -0.04993862 0.0792377
vt -0.04993862 0.1404384
vt 0.1221145 -5.960464E-08
vt 0.1221145 -0.03451073
vt 0.1197276 -0.03451073
vt 0.1197276 -5.960464E-08
vt 0.1174888 -0.03451073
vt 0.1174888 -5.960464E-08
vt 0.1155509 -0.03451073
vt 0.1155509 -5.960464E-08
vt 5.960464E-08 0.09964675
vt 0.03451073 0.09964672
vt 0.03451073 0.0977762
vt 5.960464E-08 0.09777623
vt 0.0345107 0.09648046
vt 5.960464E-08 0.09648049
vt 0.1134737 -5.960464E-08
vt 0.1134737 -0.03451073
vt 0.08581361 -0.03451073
vt 0.08581361 -5.960464E-08
vt -0.03451073 0.09648046
vt -0.03451073 0.1036894
vt -5.960464E-08 0.1036894
vt -0.03451073 0.1106596
vt -5.960464E-08 0.1106596
vt -0.03451073 0.117111
vt -5.960464E-08 0.1171111
vt -0.03451073 0.1227848
vt -5.960464E-08 0.1227848
vt -0.09590799 5.960464E-08
vt -0.09590799 0.0345107
vt -0.1014216 0.0345107
vt -0.1014216 5.960464E-08
vt -0.1077552 0.0345107
vt -0.1077552 5.960464E-08
vt -0.1146546 0.0345107
vt -0.1146546 2.980232E-08
vt -0.1218426 0.0345107
vt -0.1218426 2.980232E-08
vt -0.1290306 0.0345107
vt -0.1290306 2.980232E-08
vt -0.1359299 0.0345107
vt -0.1359299 2.980232E-08
vt -0.1422636 0.0345107
vt -0.1422636 5.960464E-08
vt -0.1477772 0.0345107
vt -0.1477772 5.960464E-08
vt 0.0345107 0.1227848
vt 0.0345107 0.117111
vt 0.0345107 0.1106595
vt 0.0345107 0.1036894
vt 0.1578715 -5.960464E-08
vt 0.1578715 -0.03451073
vt 0.1303306 -0.03451073
vt 0.1303306 -5.960464E-08
vt -0.03451073 0.09740865
vt -5.960464E-08 0.09740871
vt -0.03451073 0.09934661
vt -5.960464E-08 0.09934664
vt -0.03451073 0.1291904
vt -5.960464E-08 0.1291905
vt 0.0345107 0.1291904
vt 0.03451073 0.1021897
vt 5.960464E-08 0.1021897
vt -0.08819562 0.1581929
vt -0.06571382 0.1384395
vt -0.06571382 0.08516091
vt -0.08819562 0.06446308
vt -0.1514723 0.06446308
vt -0.1751992 0.08266142
vt -0.1751992 0.1384395
vt -0.1544747 0.1581929
vt -0.1390967 0.1291905
vt -0.1221145 0.1021897
vt -0.1197276 0.1019313
vt -0.1174888 0.101064
vt -0.1155509 0.09964675
vt -0.1140457 0.09777623
vt -0.1134737 0.09648049
vt -0.08581364 0.09648049
vt -0.08628523 0.1036894
vt -0.08818477 0.1106596
vt -0.09143585 0.1171111
vt -0.09590799 0.1227848
vt -0.1014216 0.1274529
vt -0.1077552 0.130928
vt -0.1146546 0.1330705
vt -0.1218426 0.1337944
vt -0.1290306 0.1330705
vt -0.1359299 0.130928
vt -0.1422636 0.1274529
vt -0.1477772 0.1227848
vt -0.1522493 0.1171111
vt -0.1555004 0.1106596
vt -0.1573999 0.1036894
vt -0.1578715 0.09648049
vt -0.1303306 0.09648049
vt -0.129971 0.09740871
vt -0.1285537 0.09934664
vt -0.1577247 0.04707381
vt -0.1662266 0.03208908
vt -0.07313347 0.03208908
vt -0.08088964 0.04707381

usemtl UModeler_RulerGrid_Gray
usemap UModeler_RulerGrid_Gray
f 1/1/1 1/1/1 1/1/1

usemtl VitesseBonus
usemap VitesseBonus
f 3/3/1 2/2/1 1/1/1
f 4/4/1 3/3/1 1/1/1
f 7/7/2 6/6/2 5/5/2
f 8/8/2 7/7/2 5/5/2
f 11/11/3 10/10/3 9/9/3
f 12/12/3 11/11/3 9/9/3
f 15/14/4 14/13/4 13/8/4
f 16/5/4 15/14/4 13/8/4
f 22/28/5 11/19/5 6/18/5
f 22/28/5 6/18/5 23/29/5
f 23/29/5 6/18/5 7/17/5
f 23/29/5 7/17/5 24/30/5
f 24/30/5 7/17/5 17/23/5
f 17/23/5 7/17/5 2/16/5
f 17/23/5 2/16/5 18/24/5
f 18/24/5 2/16/5 3/15/5
f 11/19/5 22/28/5 10/20/5
f 10/20/5 22/28/5 21/27/5
f 10/20/5 21/27/5 15/21/5
f 15/21/5 21/27/5 20/26/5
f 15/21/5 20/26/5 19/25/5
f 15/21/5 19/25/5 14/22/5
f 14/22/5 19/25/5 18/24/5
f 14/22/5 18/24/5 3/15/5
f 2/31/6 7/7/6 8/8/6
f 1/32/6 2/31/6 8/8/6
f 6/33/7 11/11/7 12/12/7
f 5/34/7 6/33/7 12/12/7
f 10/35/8 15/14/8 16/5/8
f 9/36/8 10/35/8 16/5/8
f 14/13/9 3/37/9 4/32/9
f 13/8/9 14/13/9 4/32/9
f 17/40/10 18/39/10 25/38/10
f 26/41/10 17/40/10 25/38/10
f 23/44/4 24/43/4 27/42/4
f 28/45/4 23/44/4 27/42/4
f 22/48/11 23/47/11 28/46/11
f 29/49/11 22/48/11 28/46/11
f 21/50/1 22/48/1 29/49/1
f 30/51/1 21/50/1 29/49/1
f 20/54/12 21/53/12 30/52/12
f 31/45/12 20/54/12 30/52/12
f 19/55/2 20/54/2 31/45/2
f 32/42/2 19/55/2 31/45/2
f 18/56/13 19/55/13 32/42/13
f 25/57/13 18/56/13 32/42/13
f 35/60/1 34/59/1 33/58/1
f 36/61/1 35/60/1 33/58/1
f 39/64/2 38/63/2 37/62/2
f 40/65/2 39/64/2 37/62/2
f 38/68/14 42/67/14 41/66/14
f 37/69/14 38/68/14 41/66/14
f 42/67/3 44/71/3 43/70/3
f 41/66/3 42/67/3 43/70/3
f 47/73/4 46/72/4 45/65/4
f 48/74/4 47/73/4 45/65/4
f 51/85/5 34/76/5 52/86/5
f 52/86/5 34/76/5 53/87/5
f 53/87/5 34/76/5 54/88/5
f 54/88/5 34/76/5 55/89/5
f 55/89/5 34/76/5 56/90/5
f 56/90/5 34/76/5 57/91/5
f 57/91/5 34/76/5 58/92/5
f 58/92/5 34/76/5 59/93/5
f 60/94/5 59/93/5 35/75/5
f 59/93/5 34/76/5 35/75/5
f 60/94/5 35/75/5 61/95/5
f 61/95/5 35/75/5 62/96/5
f 62/96/5 35/75/5 63/97/5
f 65/99/5 64/98/5 46/82/5
f 64/98/5 63/97/5 46/82/5
f 63/97/5 35/75/5 46/82/5
f 38/78/5 39/77/5 34/76/5
f 38/78/5 34/76/5 51/85/5
f 38/78/5 51/85/5 50/84/5
f 38/78/5 50/84/5 49/83/5
f 38/78/5 49/83/5 42/79/5
f 42/79/5 49/83/5 76/110/5
f 42/79/5 76/110/5 75/109/5
f 42/79/5 75/109/5 74/108/5
f 42/79/5 74/108/5 73/107/5
f 42/79/5 73/107/5 72/106/5
f 42/79/5 72/106/5 71/105/5
f 42/79/5 71/105/5 70/104/5
f 42/79/5 70/104/5 69/103/5
f 67/101/5 66/100/5 44/80/5
f 68/102/5 67/101/5 44/80/5
f 69/103/5 68/102/5 44/80/5
f 42/79/5 69/103/5 44/80/5
f 44/80/5 66/100/5 65/99/5
f 65/99/5 46/82/5 47/81/5
f 44/80/5 65/99/5 47/81/5
f 84/121/5 55/150/5 85/122/5
f 85/122/5 55/150/5 86/123/5
f 86/123/5 55/150/5 56/149/5
f 86/123/5 56/149/5 87/124/5
f 87/124/5 56/149/5 88/125/5
f 88/125/5 56/149/5 57/148/5
f 88/125/5 57/148/5 89/126/5
f 89/126/5 57/148/5 58/147/5
f 89/126/5 58/147/5 90/127/5
f 90/127/5 58/147/5 91/128/5
f 91/128/5 58/147/5 59/146/5
f 91/128/5 59/146/5 92/129/5
f 92/129/5 59/146/5 60/145/5
f 92/129/5 60/145/5 93/130/5
f 93/130/5 60/145/5 61/144/5
f 93/130/5 61/144/5 94/131/5
f 94/131/5 61/144/5 95/132/5
f 95/132/5 61/144/5 62/143/5
f 95/132/5 62/143/5 96/133/5
f 96/133/5 62/143/5 63/142/5
f 96/133/5 63/142/5 97/134/5
f 97/134/5 63/142/5 64/141/5
f 52/153/5 53/152/5 54/151/5
f 52/153/5 54/151/5 51/154/5
f 51/154/5 54/151/5 55/150/5
f 51/154/5 55/150/5 84/121/5
f 51/154/5 84/121/5 50/111/5
f 50/111/5 84/121/5 83/120/5
f 50/111/5 83/120/5 82/119/5
f 50/111/5 82/119/5 49/112/5
f 49/112/5 82/119/5 81/118/5
f 49/112/5 81/118/5 80/117/5
f 49/112/5 80/117/5 79/116/5
f 49/112/5 79/116/5 78/115/5
f 49/112/5 78/115/5 77/114/5
f 49/112/5 77/114/5 76/113/5
f 66/139/5 101/138/5 97/134/5
f 101/138/5 100/137/5 97/134/5
f 100/137/5 99/136/5 97/134/5
f 99/136/5 98/135/5 97/134/5
f 97/134/5 64/141/5 65/140/5
f 66/139/5 97/134/5 65/140/5
f 102/155/5 106/159/5 103/156/5
f 103/156/5 106/159/5 104/157/5
f 104/157/5 106/159/5 105/158/5
f 108/161/5 107/160/5 99/136/5
f 109/162/5 108/161/5 99/136/5
f 110/163/5 109/162/5 99/136/5
f 105/158/5 110/163/5 99/136/5
f 104/157/5 105/158/5 99/136/5
f 103/156/5 104/157/5 99/136/5
f 102/155/5 103/156/5 99/136/5
f 111/164/5 102/155/5 99/136/5
f 79/116/5 111/164/5 99/136/5
f 78/115/5 79/116/5 99/136/5
f 77/114/5 78/115/5 99/136/5
f 75/165/5 77/114/5 99/136/5
f 74/166/5 75/165/5 99/136/5
f 73/167/5 74/166/5 99/136/5
f 72/168/5 73/167/5 99/136/5
f 71/169/5 72/168/5 99/136/5
f 70/170/5 71/169/5 99/136/5
f 69/171/5 70/170/5 99/136/5
f 68/172/5 69/171/5 99/136/5
f 67/173/5 68/172/5 99/136/5
f 101/138/5 67/173/5 99/136/5
f 100/137/5 101/138/5 99/136/5
f 24/43/15 17/175/15 26/174/15
f 27/42/15 24/43/15 26/174/15
f 34/76/16 39/77/16 40/176/16
f 33/177/16 34/76/16 40/176/16
f 44/71/17 47/179/17 48/178/17
f 43/70/17 44/71/17 48/178/17
f 46/180/18 35/60/18 36/61/18
f 45/181/18 46/180/18 36/61/18
f 25/184/19 4/183/19 1/182/19
f 26/185/19 25/184/19 1/182/19
f 27/188/19 8/187/19 5/186/19
f 28/189/19 27/188/19 5/186/19
f 31/192/19 16/191/19 13/190/19
f 32/193/19 31/192/19 13/190/19
f 110/196/20 105/195/20 112/194/20
f 113/197/20 110/196/20 112/194/20
f 109/198/21 110/196/21 113/197/21
f 114/199/21 109/198/21 113/197/21
f 108/200/22 109/198/22 114/199/22
f 115/201/22 108/200/22 114/199/22
f 107/204/23 108/203/23 115/202/23
f 116/205/23 107/204/23 115/202/23
f 98/206/24 107/204/24 116/205/24
f 117/207/24 98/206/24 116/205/24
f 97/210/1 98/209/1 117/208/1
f 118/211/1 97/210/1 117/208/1
f 96/213/25 97/212/25 118/207/25
f 119/214/25 96/213/25 118/207/25
f 95/215/26 96/213/26 119/214/26
f 120/216/26 95/215/26 119/214/26
f 94/217/27 95/215/27 120/216/27
f 121/218/27 94/217/27 120/216/27
f 93/219/28 94/217/28 121/218/28
f 122/220/28 93/219/28 121/218/28
f 92/223/29 93/222/29 122/221/29
f 123/224/29 92/223/29 122/221/29
f 91/225/30 92/223/30 123/224/30
f 124/226/30 91/225/30 123/224/30
f 90/227/31 91/225/31 124/226/31
f 125/228/31 90/227/31 124/226/31
f 89/229/32 90/227/32 125/228/32
f 126/230/32 89/229/32 125/228/32
f 88/231/33 89/229/33 126/230/33
f 127/232/33 88/231/33 126/230/33
f 87/233/34 88/231/34 127/232/34
f 128/234/34 87/233/34 127/232/34
f 86/235/35 87/233/35 128/234/35
f 129/236/35 86/235/35 128/234/35
f 85/237/36 86/235/36 129/236/36
f 130/238/36 85/237/36 129/236/36
f 84/240/37 85/239/37 130/220/37
f 131/218/37 84/240/37 130/220/37
f 83/241/38 84/240/38 131/218/38
f 132/216/38 83/241/38 131/218/38
f 82/242/39 83/241/39 132/216/39
f 133/214/39 82/242/39 132/216/39
f 81/206/40 82/242/40 133/214/40
f 134/207/40 81/206/40 133/214/40
f 80/245/1 81/244/1 134/243/1
f 135/246/1 80/245/1 134/243/1
f 111/247/41 80/212/41 135/207/41
f 136/248/41 111/247/41 135/207/41
f 102/249/42 111/247/42 136/248/42
f 137/250/42 102/249/42 136/248/42
f 106/251/43 102/249/43 137/250/43
f 138/252/43 106/251/43 137/250/43
f 105/254/44 106/253/44 138/252/44
f 112/255/44 105/254/44 138/252/44
f 45/257/19 36/256/19 48/258/19
f 48/258/19 36/256/19 121/274/19
f 121/274/19 36/256/19 122/275/19
f 122/275/19 36/256/19 123/276/19
f 123/276/19 36/256/19 124/277/19
f 124/277/19 36/256/19 125/278/19
f 125/278/19 36/256/19 126/279/19
f 126/279/19 36/256/19 127/280/19
f 127/280/19 36/256/19 128/281/19
f 128/281/19 36/256/19 33/263/19
f 128/281/19 33/263/19 129/282/19
f 129/282/19 33/263/19 130/283/19
f 130/283/19 33/263/19 131/284/19
f 131/284/19 33/263/19 132/285/19
f 132/285/19 33/263/19 40/262/19
f 132/285/19 40/262/19 133/286/19
f 133/286/19 40/262/19 134/287/19
f 134/287/19 40/262/19 41/260/19
f 41/260/19 40/262/19 37/261/19
f 48/258/19 121/274/19 120/273/19
f 48/258/19 120/273/19 119/272/19
f 48/258/19 119/272/19 118/271/19
f 48/258/19 118/271/19 43/259/19
f 43/259/19 118/271/19 117/270/19
f 117/270/19 115/268/19 114/267/19
f 43/259/19 117/270/19 114/267/19
f 43/259/19 114/267/19 113/266/19
f 43/259/19 113/266/19 112/265/19
f 112/265/19 138/264/19 137/290/19
f 43/259/19 112/265/19 137/290/19
f 43/259/19 137/290/19 136/289/19
f 43/259/19 136/289/19 135/288/19
f 43/259/19 135/288/19 134/287/19
f 43/259/19 134/287/19 41/260/19
f 116/269/19 115/268/19 117/270/19
f 1/182/19 8/187/19 27/188/19
f 26/185/19 1/182/19 27/188/19
f 32/193/19 13/190/19 4/183/19
f 25/184/19 32/193/19 4/183/19
f 29/291/19 28/189/19 5/186/19
f 12/292/19 29/291/19 5/186/19
f 30/294/19 9/293/19 16/191/19
f 31/192/19 30/294/19 16/191/19
f 9/293/19 30/294/19 29/291/19
f 12/292/19 9/293/19 29/291/19

